<?xml version="1.0" standalone="no"?>
<!DOCTYPE svg PUBLIC "-//W3C//DTD SVG 20010904//EN"
 "http://www.w3.org/TR/2001/REC-SVG-20010904/DTD/svg10.dtd">
<svg version="1.0" xmlns="http://www.w3.org/2000/svg"
 width="432.000000pt" height="432.000000pt" viewBox="0 0 432.000000 432.000000"
 preserveAspectRatio="xMidYMid meet">
<metadata>
Created by potrace 1.11, written by Peter Selinger 2001-2013
</metadata>
<g transform="translate(0.000000,432.000000) scale(0.100000,-0.100000)"
fill="#000000" stroke="none">
<path d="M1386 4160 c-10 -4 -13 -43 -13 -173 0 -92 -2 -170 -5 -173 -3 -2
-21 -6 -41 -7 -43 -4 -43 -3 -41 119 l1 92 -95 1 c-53 1 -99 4 -104 7 -4 3 -8
1 -8 -4 0 -6 -8 -9 -17 -8 -16 1 -18 -10 -18 -99 0 -100 0 -100 -25 -101 -46
-1 -50 5 -50 71 l0 63 -70 -2 c-38 -1 -74 0 -78 3 -5 3 -8 20 -8 36 1 24 -3
30 -21 30 -12 0 -24 3 -27 5 -2 3 -36 4 -74 2 l-69 -4 2 -531 c1 -293 6 -548
10 -567 3 -19 8 -48 11 -65 6 -45 23 -128 31 -145 3 -8 7 -20 9 -27 14 -71 89
-232 144 -314 57 -83 53 -78 187 -206 13 -12 23 -19 23 -15 0 4 4 2 8 -3 13
-19 119 -80 155 -90 4 -2 9 -4 12 -5 3 -1 10 -4 15 -5 6 -1 12 -4 15 -5 3 -1
8 -3 13 -4 4 -2 25 -7 47 -14 22 -6 58 -14 80 -18 58 -10 418 -13 430 -3 7 5
10 149 10 408 0 268 3 401 10 402 5 1 55 2 110 3 l100 1 3 598 2 598 -102 -3
-103 -3 0 -50 c0 -27 -3 -55 -7 -61 -4 -7 -28 -11 -53 -10 -25 1 -51 -1 -57
-5 -6 -4 -11 -43 -12 -95 l-1 -88 -27 1 c-16 1 -34 1 -42 2 -10 1 -13 44 -13
226 0 124 -2 228 -6 231 -9 10 -57 12 -63 2 -3 -4 -10 -5 -17 -1 -13 8 -142
10 -161 3z m205 -114 c0 -39 0 -142 0 -228 0 -87 3 -158 7 -159 26 -3 139 -4
150 -1 8 3 12 24 11 66 -2 125 -3 121 36 121 19 0 35 -4 35 -8 0 -4 8 -4 18 1
9 5 22 7 29 5 8 -3 11 11 11 44 -1 87 -4 82 62 82 l60 -1 -2 -556 -3 -557
-107 1 c-91 1 -108 -1 -112 -15 -2 -9 -4 -85 -4 -169 0 -84 -2 -156 -5 -158
-3 -3 -57 -6 -121 -6 -105 -1 -116 -3 -116 -20 0 -19 12 -21 173 -19 46 0 67
-3 68 -12 3 -58 0 -407 -4 -414 -6 -10 -340 -9 -356 1 -6 4 -11 1 -11 -6 0 -9
-3 -9 -8 -2 -4 6 -14 11 -22 12 -63 3 -247 75 -297 117 -7 5 -24 19 -39 30
-152 118 -271 313 -333 549 -12 44 -23 100 -27 125 -3 25 -8 55 -11 66 -8 23
-13 1001 -6 1028 3 13 15 17 54 17 50 0 56 -7 50 -57 -2 -15 1 -15 89 -17 l65
-2 5 -65 5 -65 75 1 75 0 2 95 c1 52 2 98 2 102 1 4 36 6 79 5 l77 -2 0 -103
c0 -83 3 -102 15 -103 83 -7 143 -3 149 11 4 8 6 85 5 170 0 85 1 158 3 162 2
3 41 6 88 6 l85 0 1 -72z"/>
<path d="M1297 3514 c-1 -1 -22 -4 -47 -6 -25 -2 -50 -6 -55 -10 -6 -3 -26 -9
-45 -13 -40 -9 -143 -55 -148 -67 -2 -4 -9 -8 -16 -8 -15 0 -141 -92 -172
-126 l-22 -22 23 -20 c22 -20 148 -97 195 -120 39 -19 141 -52 162 -52 10 0
18 -4 18 -9 0 -10 250 -7 295 3 46 11 146 48 182 67 17 10 34 15 37 12 3 -4 6
-1 6 5 0 6 10 14 23 18 32 10 137 86 137 99 0 6 -18 24 -40 41 -22 16 -40 32
-40 37 0 4 -5 7 -10 7 -6 0 -20 9 -32 20 -12 10 -25 17 -30 14 -4 -3 -8 -1 -8
3 0 11 -120 77 -120 66 0 -4 -4 -3 -8 2 -5 9 -46 24 -102 40 -38 11 -177 25
-183 19z m143 -48 c67 -14 165 -49 189 -67 13 -11 28 -19 33 -19 11 0 131 -84
147 -103 8 -11 1 -20 -32 -44 -50 -37 -209 -114 -237 -116 -11 -1 -20 -5 -20
-9 0 -4 -9 -5 -20 -3 -11 2 -22 0 -24 -4 -3 -4 -22 -9 -43 -10 -21 -1 -55 -3
-76 -5 -57 -5 -194 18 -267 44 -64 23 -223 111 -235 130 -11 18 108 106 207
153 55 26 111 44 163 54 17 2 31 6 33 7 5 6 148 -1 182 -8z"/>
<path d="M1270 3388 c-110 -67 -55 -242 72 -232 73 6 120 60 117 132 -6 96
-107 150 -189 100z"/>
<path d="M2674 4161 c-2 -2 -4 -107 -4 -233 0 -175 -3 -228 -12 -229 -7 0 -25
-2 -40 -3 -16 -1 -29 2 -29 6 -1 4 -3 40 -4 78 -1 39 -3 78 -4 88 -1 16 -9 18
-63 16 l-63 -3 0 62 0 62 -102 1 -103 1 0 -593 c0 -468 3 -594 13 -595 6 -1
53 -3 102 -4 50 -2 95 -3 101 -4 7 -1 10 -47 9 -138 -1 -76 1 -144 3 -150 3
-9 35 -12 110 -12 179 0 172 1 172 -21 0 -22 5 -21 -207 -21 -61 0 -73 -3 -74
-17 -3 -45 -4 -438 -1 -448 3 -10 375 -11 432 -1 71 13 90 18 140 36 170 59
293 152 400 301 48 66 124 200 113 200 -3 0 0 6 6 14 7 8 13 22 15 32 2 11 11
37 20 59 18 47 42 143 51 200 3 22 9 63 14 92 4 28 7 283 7 565 l-1 513 -92 3
c-88 3 -93 2 -94 -18 -3 -51 -10 -55 -86 -54 l-68 0 -5 -65 -5 -65 -32 -1
c-18 -1 -34 3 -34 9 -1 6 -2 52 -3 101 l-1 90 -120 0 -120 0 0 -100 c0 -55 -3
-102 -7 -105 -4 -3 -24 -4 -45 -2 l-38 4 2 174 c2 158 1 174 -15 175 -62 3
-234 3 -238 0z m421 -700 c79 -16 225 -88 299 -147 l59 -47 -24 -18 c-13 -10
-32 -25 -41 -33 -10 -9 -20 -16 -23 -16 -3 0 -31 -13 -63 -28 -215 -108 -415
-114 -632 -20 -64 28 -177 97 -183 111 -3 7 23 33 57 58 177 133 361 179 551
140z"/>
<path d="M2920 3399 c-43 -17 -76 -65 -78 -112 -6 -124 148 -181 223 -82 76
98 -31 240 -145 194z"/>
<path d="M255 1515 c-22 -8 -41 -15 -42 -15 -2 0 -3 -152 -3 -338 l0 -339 29
-26 c63 -56 210 -80 280 -45 58 29 121 134 120 201 0 12 1 31 3 42 10 85 -46
203 -112 237 -35 18 -133 31 -145 20 -3 -3 -11 -7 -18 -8 -7 -2 -22 -6 -34
-10 l-23 -6 -1 143 c-1 79 -1 147 0 152 1 10 -7 8 -54 -8z m196 -344 c18 -1
65 -44 58 -53 -2 -3 1 -11 8 -20 14 -16 19 -127 8 -173 -12 -50 -35 -94 -55
-105 -28 -15 -97 -12 -131 5 l-30 16 3 156 3 157 45 11 c25 7 52 11 60 9 8 -1
22 -3 31 -3z"/>
<path d="M925 1516 c-22 -5 -43 -14 -47 -20 -4 -6 -7 -156 -7 -334 0 -356 3
-372 61 -407 16 -9 51 -18 77 -19 48 -3 48 -2 47 28 -1 26 -7 32 -39 41 -21 6
-35 14 -31 18 4 4 2 7 -4 7 -9 0 -12 93 -14 348 l-3 348 -40 -10z"/>
<path d="M1388 1514 c-32 -17 -58 -62 -58 -99 0 -34 24 -80 52 -99 25 -18 108
-22 108 -6 0 6 7 10 15 10 8 0 23 17 34 38 30 59 14 125 -37 154 -36 19 -81
21 -114 2z m90 -66 c20 -20 14 -56 -12 -73 -28 -19 -50 -12 -64 19 -20 45 41
89 76 54z"/>
<path d="M1910 1520 c0 -5 -7 -7 -15 -4 -8 4 -21 1 -29 -5 -7 -6 -16 -8 -19
-4 -10 9 -10 11 -12 -354 -1 -325 -1 -333 19 -350 69 -60 212 -85 286 -52 45
20 95 85 111 143 15 54 20 164 8 172 -5 3 -7 9 -4 14 8 13 -18 70 -49 107 -50
59 -134 82 -215 57 -25 -7 -49 -14 -52 -14 -3 0 -5 62 -4 138 0 75 -1 143 -3
150 -5 14 -22 16 -22 2z m188 -362 c35 -18 54 -64 57 -137 3 -79 -15 -155 -42
-183 -31 -30 -82 -38 -134 -19 l-44 17 -1 152 c-1 144 1 154 20 164 51 27 98
29 144 6z"/>
<path d="M1385 1250 c-16 -4 -47 -14 -68 -23 -33 -14 -37 -20 -32 -39 14 -45
18 -49 46 -34 67 35 157 26 181 -17 13 -24 19 -66 9 -68 -3 -1 -33 -2 -66 -3
-91 -4 -131 -14 -166 -43 -73 -61 -74 -180 -2 -245 55 -50 153 -56 246 -14 93
42 93 40 91 217 -1 156 -6 180 -43 223 -36 41 -125 62 -196 46z m130 -268 c8
-6 12 -91 6 -137 -1 -14 -59 -35 -95 -35 -40 0 -86 49 -86 92 1 38 17 64 51
77 29 12 110 14 124 3z"/>
<path d="M3920 1252 c-19 -2 -41 -9 -49 -15 -12 -9 -13 -9 -7 1 9 16 -29 0
-95 -40 l-46 -28 1 -113 c1 -61 -2 -122 -6 -134 -4 -13 -4 -23 0 -23 4 0 7
-35 7 -77 l0 -78 30 -2 c74 -5 70 -16 70 202 0 198 2 213 37 219 7 1 18 4 23
8 22 14 89 -2 114 -27 25 -25 25 -25 26 -212 l0 -188 35 -2 c71 -3 67 -14 66
212 -1 190 -2 205 -22 232 -35 48 -106 73 -184 65z"/>
<path d="M2522 1234 l-34 -15 4 -192 c3 -182 4 -194 26 -225 37 -51 86 -71
168 -67 38 1 81 8 97 14 28 11 28 11 30 -31 3 -38 -17 -89 -40 -108 -26 -20
-79 -38 -127 -42 -27 -2 -31 -14 -20 -56 6 -20 11 -22 43 -17 151 22 220 75
237 182 5 29 9 511 5 558 -1 9 -25 11 -88 6 -10 -1 -13 -47 -13 -195 0 -190
-1 -195 -22 -210 -12 -9 -30 -16 -40 -16 -10 0 -18 -3 -18 -8 0 -4 -18 -6 -40
-4 -22 2 -40 9 -40 15 0 6 -3 8 -6 4 -10 -10 -30 16 -41 53 -6 19 -10 110 -9
203 2 162 1 167 -19 166 -11 0 -35 -7 -53 -15z"/>
<path d="M3263 1243 c-13 -2 -23 -9 -23 -14 0 -5 -3 -8 -7 -8 -23 4 -35 -5
-61 -43 -94 -138 -67 -344 54 -418 38 -24 116 -31 179 -16 17 4 35 8 41 9 5 2
24 12 42 23 31 19 31 20 14 46 -17 26 -18 26 -52 11 -104 -47 -181 -26 -214
57 -9 22 -16 53 -16 69 l0 30 73 0 c39 0 105 0 145 0 l73 1 -6 48 c-13 110
-40 159 -103 191 -36 17 -94 23 -139 14z m108 -92 c11 -12 23 -34 25 -48 3
-15 7 -30 10 -35 3 -4 -3 -8 -13 -9 -39 -2 -165 0 -168 3 -9 8 27 84 46 99 29
21 75 17 100 -10z"/>
<path d="M240 436 c-29 -12 -43 -30 -51 -67 -8 -36 8 -53 73 -82 63 -28 72
-39 64 -71 -8 -34 -44 -46 -91 -30 -38 13 -55 11 -55 -5 0 -14 78 -34 110 -28
68 14 100 85 58 129 -13 13 -42 30 -66 38 -54 17 -70 42 -48 75 15 24 36 26
84 11 16 -5 22 -3 22 7 0 13 -21 23 -65 32 -5 1 -21 -3 -35 -9z"/>
<path d="M540 441 c0 -6 -6 -8 -14 -5 -21 8 -71 -41 -83 -81 -34 -109 33 -215
128 -202 107 14 141 183 53 265 -13 13 -32 22 -42 20 -9 -1 -23 1 -29 5 -7 5
-13 4 -13 -2z m72 -53 c9 -12 14 -26 12 -30 -2 -3 0 -9 5 -12 16 -10 3 -105
-18 -139 -12 -18 -21 -28 -21 -24 0 4 -9 3 -19 -3 -48 -25 -100 36 -97 116 2
62 6 74 33 101 28 27 80 23 105 -9z"/>
<path d="M769 343 c-1 -120 1 -187 7 -192 2 -3 9 0 16 7 13 13 17 112 5 112
-5 0 -5 5 -2 10 14 22 32 6 68 -59 27 -50 43 -69 56 -68 17 1 16 6 -12 57 -17
30 -35 58 -40 61 -5 4 -3 10 4 15 14 9 19 10 39 13 6 0 10 8 10 16 0 8 5 15
11 15 10 0 8 42 -5 72 -10 23 -31 30 -98 35 l-58 4 -1 -98z m112 68 c3 -1 11
-13 18 -27 18 -41 -8 -74 -58 -74 l-38 0 -2 53 -1 53 38 -2 c20 -1 40 -3 43
-3z"/>
<path d="M994 429 c-3 -5 3 -10 13 -10 10 -1 23 -2 28 -4 6 -1 17 -3 25 -3 13
-2 15 -21 15 -119 -1 -110 5 -143 26 -143 5 0 9 60 9 133 l0 134 35 0 c20 0
40 4 45 9 7 7 -24 10 -90 11 -55 0 -103 -4 -106 -8z"/>
<path d="M1266 432 c-5 -8 -8 -98 -7 -209 l1 -72 65 0 c46 0 65 4 65 13 0 8
-15 12 -45 11 -53 -1 -54 0 -54 105 1 134 -1 160 -10 160 -6 0 -12 -4 -15 -8z"/>
<path d="M1555 430 c-14 -23 -104 -274 -100 -279 9 -8 24 13 39 54 8 25 19 39
27 36 8 -2 33 -3 56 -2 40 2 41 1 55 -41 8 -24 21 -43 29 -43 8 0 12 7 10 15
-2 8 -4 20 -5 25 -1 6 -20 63 -41 128 -35 108 -53 135 -70 107z m29 -87 c8
-27 17 -55 21 -64 5 -13 -2 -16 -39 -16 -26 0 -46 4 -46 8 0 12 41 119 45 119
2 0 11 -21 19 -47z"/>
<path d="M1756 432 c-2 -4 -4 -70 -4 -145 0 -103 3 -135 12 -128 7 6 11 46 10
115 0 58 2 103 5 101 3 -2 40 -53 81 -113 99 -147 105 -145 105 31 0 85 -4
137 -10 137 -6 0 -10 -40 -11 -98 0 -119 -9 -138 -36 -83 -11 23 -24 41 -29
41 -5 0 -9 4 -9 10 0 14 -90 140 -100 140 -5 0 -11 -4 -14 -8z"/>
<path d="M2066 311 c2 -144 1 -142 12 -139 4 1 19 -4 34 -12 29 -14 98 -6 98
11 0 6 4 8 8 5 17 -10 53 87 48 129 -2 22 -5 41 -7 43 -1 1 -2 6 -3 12 -2 17
-49 69 -58 64 -4 -3 -8 -1 -8 3 0 5 -28 10 -63 10 l-62 1 1 -127z m124 86 c24
-14 30 -29 37 -90 5 -46 -14 -107 -37 -122 -22 -14 -57 -14 -75 -1 -16 12 -18
26 -17 115 1 56 4 106 7 112 7 11 59 3 85 -14z"/>
</g>
</svg>
